<svg xmlns="http://www.w3.org/2000/svg" xmlns:xlink="http://www.w3.org/1999/xlink" version="1.1" width="1000" height="1000" viewBox="0 0 1000 1000" xml:space="preserve">
<desc>Created with Fabric.js 3.5.0</desc>
<defs>
</defs>
<rect x="0" y="0" width="100%" height="100%" fill="#ffffff"/>
<g transform="matrix(3.5769 0 0 3.5769 483.6041 534.1505)" id="139099">
<g style="" vector-effect="non-scaling-stroke">
		<g transform="matrix(0.1333 0 0 -0.1333 2.6343 -6.0292)">
<path style="stroke: none; stroke-width: 1; stroke-dasharray: none; stroke-linecap: butt; stroke-dashoffset: 0; stroke-linejoin: miter; stroke-miterlimit: 4; is-custom-font: none; font-file-url: none; fill: rgb(0,0,0); fill-rule: nonzero; opacity: 1;" transform=" translate(-1140, -1165)" d="M 186 2018 c -14 -20 -16 -85 -16 -511 c 0 -317 4 -495 10 -508 c 10 -18 26 -19 435 -19 l 425 0 l 0 -328 c 0 -306 1 -330 18 -345 c 17 -15 67 -17 519 -17 c 472 0 501 1 516 18 c 15 17 17 58 17 385 c 0 319 -2 368 -16 381 c -13 14 -51 16 -255 16 l -239 0 l 0 458 c 0 432 -1 460 -18 475 c -17 16 -80 17 -700 17 l -681 0 l -15 -22 z m 1370 -20 c 4 -6 8 -205 9 -442 c 0 -237 3 -438 5 -446 c 4 -12 -4 -15 -32 -14 c -21 0 -179 1 -350 2 c -194 2 -307 6 -297 12 c 28 17 234 231 231 241 c -1 6 1 8 6 5 c 5 -3 31 17 57 44 c 53 53 65 59 85 35 c 7 -8 17 -12 23 -8 c 5 3 7 2 4 -4 c -3 -5 39 -54 94 -108 c 75 -73 103 -95 112 -86 c 8 8 1 21 -28 51 c -21 21 -43 36 -49 33 c -6 -3 -8 -3 -4 2 c 11 11 -12 36 -26 28 c -6 -3 -8 -2 -3 2 c 10 12 -33 56 -47 48 c -6 -3 -8 -3 -4 2 c 10 11 -11 37 -23 29 c -5 -3 -8 0 -7 8 c 2 7 -4 12 -12 10 c -8 -2 -12 0 -8 4 c 14 13 -14 34 -46 34 c -23 0 -41 -9 -64 -33 c -18 -18 -30 -36 -27 -40 c 3 -4 2 -5 -2 -2 c -4 3 -28 -15 -53 -40 l -47 -46 l -45 46 c -68 68 -88 64 -190 -36 c -46 -44 -82 -86 -80 -92 c 2 -7 0 -9 -4 -5 c -4 4 -38 -23 -76 -60 l -69 -67 l -72 -5 c -55 -4 -72 -9 -72 -20 c 0 -13 41 -15 298 -18 l 297 -2 l 0 -25 l 0 -25 l -414 0 c -386 0 -414 1 -418 18 c -8 30 -2 957 6 970 c 10 17 1331 18 1342 0 z m -600 -616 c -3 -5 10 -24 29 -42 c 19 -19 35 -39 35 -44 c 0 -6 -42 -52 -92 -103 l -93 -93 l -97 0 c -59 0 -98 4 -98 10 c 0 6 4 10 9 10 c 12 0 226 218 226 230 c 0 14 15 24 43 28 c 15 2 29 5 31 8 c 8 7 12 4 7 -4 z m 1126 -687 l -2 -375 l -485 -2 c -266 -2 -494 -1 -507 2 l -23 6 l 0 354 c 0 195 3 363 7 373 c 7 16 39 17 510 17 l 503 -1 l -3 -374 z" stroke-linecap="round"/>
</g>
		<g transform="matrix(0.1333 0 0 -0.1333 -76.1518 -100.3037)">
<path style="stroke: none; stroke-width: 1; stroke-dasharray: none; stroke-linecap: butt; stroke-dashoffset: 0; stroke-linejoin: miter; stroke-miterlimit: 4; is-custom-font: none; font-file-url: none; fill: rgb(0,0,0); fill-rule: nonzero; opacity: 1;" transform=" translate(-548.8666, -1872.2687)" d="M 534 1896 c -9 -24 0 -61 15 -61 c 16 0 23 30 15 58 c -6 21 -23 22 -30 3 z" stroke-linecap="round"/>
</g>
		<g transform="matrix(0.1333 0 0 -0.1333 -89.1833 -96.1982)">
<path style="stroke: none; stroke-width: 1; stroke-dasharray: none; stroke-linecap: butt; stroke-dashoffset: 0; stroke-linejoin: miter; stroke-miterlimit: 4; is-custom-font: none; font-file-url: none; fill: rgb(0,0,0); fill-rule: nonzero; opacity: 1;" transform=" translate(-451.1327, -1841.4775)" d="M 425 1868 c -9 -22 22 -68 41 -61 c 19 7 18 13 -10 48 c -21 25 -25 27 -31 13 z" stroke-linecap="round"/>
</g>
		<g transform="matrix(0.1333 0 0 -0.1333 -62.5329 -96.1644)">
<path style="stroke: none; stroke-width: 1; stroke-dasharray: none; stroke-linecap: butt; stroke-dashoffset: 0; stroke-linejoin: miter; stroke-miterlimit: 4; is-custom-font: none; font-file-url: none; fill: rgb(0,0,0); fill-rule: nonzero; opacity: 1;" transform=" translate(-651.0101, -1841.2227)" d="M 645 1870 c -3 -5 -3 -15 0 -20 c 4 -6 1 -9 -7 -8 c -16 4 -17 -34 -1 -39 c 14 -5 47 53 38 67 c -8 13 -22 13 -30 0 z" stroke-linecap="round"/>
</g>
		<g transform="matrix(0.1333 0 0 -0.1333 -99.7335 -86.7912)">
<path style="stroke: none; stroke-width: 1; stroke-dasharray: none; stroke-linecap: butt; stroke-dashoffset: 0; stroke-linejoin: miter; stroke-miterlimit: 4; is-custom-font: none; font-file-url: none; fill: rgb(0,0,0); fill-rule: nonzero; opacity: 1;" transform=" translate(-372.0073, -1770.9268)" d="M 340 1782 c 0 -24 46 -50 61 -35 c 7 7 2 17 -17 32 c -33 26 -44 27 -44 3 z" stroke-linecap="round"/>
</g>
		<g transform="matrix(0.1333 0 0 -0.1333 -53.1588 -86.1793)">
<path style="stroke: none; stroke-width: 1; stroke-dasharray: none; stroke-linecap: butt; stroke-dashoffset: 0; stroke-linejoin: miter; stroke-miterlimit: 4; is-custom-font: none; font-file-url: none; fill: rgb(0,0,0); fill-rule: nonzero; opacity: 1;" transform=" translate(-721.3176, -1766.3375)" d="M 712 1780 c -32 -20 -35 -40 -8 -40 c 24 0 62 37 51 49 c -7 7 -21 4 -43 -9 z" stroke-linecap="round"/>
</g>
		<g transform="matrix(0.1333 0 0 -0.1333 -76.0732 -72.7195)">
<path style="stroke: none; stroke-width: 1; stroke-dasharray: none; stroke-linecap: butt; stroke-dashoffset: 0; stroke-linejoin: miter; stroke-miterlimit: 4; is-custom-font: none; font-file-url: none; fill: rgb(0,0,0); fill-rule: nonzero; opacity: 1;" transform=" translate(-549.4779, -1665.3695)" d="M 481 1744 c -76 -64 -29 -184 72 -184 c 72 0 125 86 93 149 c -34 65 -110 82 -165 35 z m 113 -25 c 30 -23 36 -78 11 -99 c -8 -7 -13 -15 -10 -19 c 2 -4 -13 -7 -34 -7 c -50 1 -81 29 -81 72 c 0 35 37 74 70 74 c 10 0 29 -9 44 -21 z" stroke-linecap="round"/>
</g>
		<g transform="matrix(0.1333 0 0 -0.1333 -103.4097 -72.5943)">
<path style="stroke: none; stroke-width: 1; stroke-dasharray: none; stroke-linecap: butt; stroke-dashoffset: 0; stroke-linejoin: miter; stroke-miterlimit: 4; is-custom-font: none; font-file-url: none; fill: rgb(0,0,0); fill-rule: nonzero; opacity: 1;" transform=" translate(-344.4375, -1664.4537)" d="M 305 1670 c -3 -5 0 -13 9 -16 c 21 -8 71 -1 71 11 c 0 14 -72 19 -80 5 z" stroke-linecap="round"/>
</g>
		<g transform="matrix(0.1333 0 0 -0.1333 -49.4641 -72.7619)">
<path style="stroke: none; stroke-width: 1; stroke-dasharray: none; stroke-linecap: butt; stroke-dashoffset: 0; stroke-linejoin: miter; stroke-miterlimit: 4; is-custom-font: none; font-file-url: none; fill: rgb(0,0,0); fill-rule: nonzero; opacity: 1;" transform=" translate(-749.0288, -1665.711)" d="M 710 1664 c 0 -11 9 -14 37 -12 c 52 4 56 28 4 28 c -30 0 -41 -4 -41 -16 z" stroke-linecap="round"/>
</g>
		<g transform="matrix(0.1333 0 0 -0.1333 -99.5987 -59.1828)">
<path style="stroke: none; stroke-width: 1; stroke-dasharray: none; stroke-linecap: butt; stroke-dashoffset: 0; stroke-linejoin: miter; stroke-miterlimit: 4; is-custom-font: none; font-file-url: none; fill: rgb(0,0,0); fill-rule: nonzero; opacity: 1;" transform=" translate(-373.0192, -1563.8646)" d="M 352 1572 c -17 -13 -20 -20 -11 -29 c 15 -15 69 10 69 32 c 0 20 -30 19 -58 -3 z" stroke-linecap="round"/>
</g>
		<g transform="matrix(0.1333 0 0 -0.1333 -53.172 -59.1778)">
<path style="stroke: none; stroke-width: 1; stroke-dasharray: none; stroke-linecap: butt; stroke-dashoffset: 0; stroke-linejoin: miter; stroke-miterlimit: 4; is-custom-font: none; font-file-url: none; fill: rgb(0,0,0); fill-rule: nonzero; opacity: 1;" transform=" translate(-721.2196, -1563.8271)" d="M 685 1580 c -9 -15 57 -52 70 -39 c 7 7 3 16 -14 30 c -26 21 -46 24 -56 9 z" stroke-linecap="round"/>
</g>
		<g transform="matrix(0.1333 0 0 -0.1333 -89.0973 -49.1175)">
<path style="stroke: none; stroke-width: 1; stroke-dasharray: none; stroke-linecap: butt; stroke-dashoffset: 0; stroke-linejoin: miter; stroke-miterlimit: 4; is-custom-font: none; font-file-url: none; fill: rgb(0,0,0); fill-rule: nonzero; opacity: 1;" transform=" translate(-451.7776, -1488.3723)" d="M 434 1505 c -17 -26 -12 -61 6 -50 c 6 4 8 11 4 16 c -3 5 0 8 8 7 c 7 -2 12 5 12 14 c -1 10 2 15 7 12 c 5 -3 9 -1 9 4 c 0 23 -31 20 -46 -3 z" stroke-linecap="round"/>
</g>
		<g transform="matrix(0.1333 0 0 -0.1333 -62.6044 -49.2865)">
<path style="stroke: none; stroke-width: 1; stroke-dasharray: none; stroke-linecap: butt; stroke-dashoffset: 0; stroke-linejoin: miter; stroke-miterlimit: 4; is-custom-font: none; font-file-url: none; fill: rgb(0,0,0); fill-rule: nonzero; opacity: 1;" transform=" translate(-650.4732, -1489.6388)" d="M 625 1520 c -7 -11 22 -70 35 -70 c 13 0 22 18 14 31 c -4 8 -9 7 -16 -2 c -8 -11 -9 -10 -4 4 c 10 32 -13 62 -29 37 z" stroke-linecap="round"/>
</g>
		<g transform="matrix(0.1333 0 0 -0.1333 -76.3558 -45.4393)">
<path style="stroke: none; stroke-width: 1; stroke-dasharray: none; stroke-linecap: butt; stroke-dashoffset: 0; stroke-linejoin: miter; stroke-miterlimit: 4; is-custom-font: none; font-file-url: none; fill: rgb(0,0,0); fill-rule: nonzero; opacity: 1;" transform=" translate(-547.3363, -1460.7846)" d="M 537 1493 c -11 -11 -8 -61 4 -69 c 15 -9 26 11 23 39 c -1 12 -3 25 -3 30 c -1 9 -15 9 -24 0 z" stroke-linecap="round"/>
</g>
		<g transform="matrix(0.1333 0 0 -0.1333 -106.2059 5.2984)">
<path style="stroke: none; stroke-width: 1; stroke-dasharray: none; stroke-linecap: butt; stroke-dashoffset: 0; stroke-linejoin: miter; stroke-miterlimit: 4; is-custom-font: none; font-file-url: none; fill: rgb(0,0,0); fill-rule: nonzero; opacity: 1;" transform=" translate(-323.4713, -1080.2567)" d="M 265 1090 c -12 -20 7 -30 59 -30 c 57 0 67 5 59 26 c -6 17 -108 20 -118 4 z" stroke-linecap="round"/>
</g>
		<g transform="matrix(0.1333 0 0 -0.1333 26.6664 21.0539)">
<path style="stroke: none; stroke-width: 1; stroke-dasharray: none; stroke-linecap: butt; stroke-dashoffset: 0; stroke-linejoin: miter; stroke-miterlimit: 4; is-custom-font: none; font-file-url: none; fill: rgb(0,0,0); fill-rule: nonzero; opacity: 1;" transform=" translate(-1320, -962.0886)" d="M 1310 966 c 0 -14 5 -28 10 -31 c 6 -4 10 7 10 24 c 0 17 -4 31 -10 31 c -5 0 -10 -11 -10 -24 z" stroke-linecap="round"/>
</g>
		<g transform="matrix(0.1333 0 0 -0.1333 36.9842 23.6146)">
<path style="stroke: none; stroke-width: 1; stroke-dasharray: none; stroke-linecap: butt; stroke-dashoffset: 0; stroke-linejoin: miter; stroke-miterlimit: 4; is-custom-font: none; font-file-url: none; fill: rgb(0,0,0); fill-rule: nonzero; opacity: 1;" transform=" translate(-1397.3865, -942.8848)" d="M 1391 951 c -14 -24 -14 -31 -1 -31 c 14 0 32 38 21 45 c -6 3 -15 -3 -20 -14 z" stroke-linecap="round"/>
</g>
		<g transform="matrix(0.1333 0 0 -0.1333 16.9595 24.3707)">
<path style="stroke: none; stroke-width: 1; stroke-dasharray: none; stroke-linecap: butt; stroke-dashoffset: 0; stroke-linejoin: miter; stroke-miterlimit: 4; is-custom-font: none; font-file-url: none; fill: rgb(0,0,0); fill-rule: nonzero; opacity: 1;" transform=" translate(-1247.2007, -937.2139)" d="M 1230 954 c 0 -15 22 -44 31 -39 c 11 7 -7 45 -21 45 c -6 0 -10 -3 -10 -6 z" stroke-linecap="round"/>
</g>
		<g transform="matrix(0.1333 0 0 -0.1333 44.3649 31.0779)">
<path style="stroke: none; stroke-width: 1; stroke-dasharray: none; stroke-linecap: butt; stroke-dashoffset: 0; stroke-linejoin: miter; stroke-miterlimit: 4; is-custom-font: none; font-file-url: none; fill: rgb(0,0,0); fill-rule: nonzero; opacity: 1;" transform=" translate(-1452.7424, -886.9117)" d="M 1447 896 c -9 -7 -17 -16 -17 -20 c 0 -11 27 -6 39 8 c 16 19 0 27 -22 12 z" stroke-linecap="round"/>
</g>
		<g transform="matrix(0.1333 0 0 -0.1333 9.3324 31.3329)">
<path style="stroke: none; stroke-width: 1; stroke-dasharray: none; stroke-linecap: butt; stroke-dashoffset: 0; stroke-linejoin: miter; stroke-miterlimit: 4; is-custom-font: none; font-file-url: none; fill: rgb(0,0,0); fill-rule: nonzero; opacity: 1;" transform=" translate(-1190, -885)" d="M 1170 885 c 7 -8 21 -15 32 -15 c 17 0 18 3 8 15 c -7 8 -21 15 -32 15 c -17 0 -18 -3 -8 -15 z" stroke-linecap="round"/>
</g>
		<g transform="matrix(0.1333 0 0 -0.1333 27.1125 41.4122)">
<path style="stroke: none; stroke-width: 1; stroke-dasharray: none; stroke-linecap: butt; stroke-dashoffset: 0; stroke-linejoin: miter; stroke-miterlimit: 4; is-custom-font: none; font-file-url: none; fill: rgb(0,0,0); fill-rule: nonzero; opacity: 1;" transform=" translate(-1323.3629, -809.3885)" d="M 1275 868 c -38 -34 -39 -82 -1 -115 c 34 -28 65 -29 100 -2 c 50 39 26 122 -40 135 c -24 4 -37 0 -59 -18 z m 93 -23 c 8 -7 19 -65 11 -60 c -8 5 -12 -5 -11 -25 c 1 -10 -85 -5 -87 5 c -5 27 -7 94 -2 91 c 3 -2 15 0 26 4 c 16 6 46 -1 63 -15 z" stroke-linecap="round"/>
</g>
		<g transform="matrix(0.1333 0 0 -0.1333 6.6656 41.333)">
<path style="stroke: none; stroke-width: 1; stroke-dasharray: none; stroke-linecap: butt; stroke-dashoffset: 0; stroke-linejoin: miter; stroke-miterlimit: 4; is-custom-font: none; font-file-url: none; fill: rgb(0,0,0); fill-rule: nonzero; opacity: 1;" transform=" translate(-1170, -810)" d="M 1140 810 c 0 -5 14 -10 30 -10 c 17 0 30 5 30 10 c 0 6 -13 10 -30 10 c -16 0 -30 -4 -30 -10 z" stroke-linecap="round"/>
</g>
		<g transform="matrix(0.1333 0 0 -0.1333 46.9442 41.333)">
<path style="stroke: none; stroke-width: 1; stroke-dasharray: none; stroke-linecap: butt; stroke-dashoffset: 0; stroke-linejoin: miter; stroke-miterlimit: 4; is-custom-font: none; font-file-url: none; fill: rgb(0,0,0); fill-rule: nonzero; opacity: 1;" transform=" translate(-1472.0886, -810)" d="M 1445 810 c -4 -6 7 -10 24 -10 c 17 0 31 5 31 10 c 0 6 -11 10 -24 10 c -14 0 -28 -4 -31 -10 z" stroke-linecap="round"/>
</g>
		<g transform="matrix(0.1333 0 0 -0.1333 9.4084 51.4355)">
<path style="stroke: none; stroke-width: 1; stroke-dasharray: none; stroke-linecap: butt; stroke-dashoffset: 0; stroke-linejoin: miter; stroke-miterlimit: 4; is-custom-font: none; font-file-url: none; fill: rgb(0,0,0); fill-rule: nonzero; opacity: 1;" transform=" translate(-1190.57, -734.2288)" d="M 1181 741 c -14 -11 -19 -21 -13 -25 c 5 -3 20 2 33 12 c 29 24 11 36 -20 13 z" stroke-linecap="round"/>
</g>
		<g transform="matrix(0.1333 0 0 -0.1333 44.3791 51.6599)">
<path style="stroke: none; stroke-width: 1; stroke-dasharray: none; stroke-linecap: butt; stroke-dashoffset: 0; stroke-linejoin: miter; stroke-miterlimit: 4; is-custom-font: none; font-file-url: none; fill: rgb(0,0,0); fill-rule: nonzero; opacity: 1;" transform=" translate(-1452.8488, -732.5462)" d="M 1430 740 c 0 -12 35 -31 44 -23 c 8 9 -14 33 -30 33 c -8 0 -14 -4 -14 -10 z" stroke-linecap="round"/>
</g>
		<g transform="matrix(0.1333 0 0 -0.1333 16.892 58.9365)">
<path style="stroke: none; stroke-width: 1; stroke-dasharray: none; stroke-linecap: butt; stroke-dashoffset: 0; stroke-linejoin: miter; stroke-miterlimit: 4; is-custom-font: none; font-file-url: none; fill: rgb(0,0,0); fill-rule: nonzero; opacity: 1;" transform=" translate(-1246.6946, -677.969)" d="M 1241 691 c -6 -11 -11 -24 -11 -30 c 0 -20 17 -11 28 14 c 14 29 -2 44 -17 16 z" stroke-linecap="round"/>
</g>
		<g transform="matrix(0.1333 0 0 -0.1333 36.9595 59.0373)">
<path style="stroke: none; stroke-width: 1; stroke-dasharray: none; stroke-linecap: butt; stroke-dashoffset: 0; stroke-linejoin: miter; stroke-miterlimit: 4; is-custom-font: none; font-file-url: none; fill: rgb(0,0,0); fill-rule: nonzero; opacity: 1;" transform=" translate(-1397.2007, -677.2139)" d="M 1380 694 c 0 -15 22 -44 31 -39 c 11 7 -7 45 -21 45 c -6 0 -10 -3 -10 -6 z" stroke-linecap="round"/>
</g>
		<g transform="matrix(0.1333 0 0 -0.1333 26.6664 61.0539)">
<path style="stroke: none; stroke-width: 1; stroke-dasharray: none; stroke-linecap: butt; stroke-dashoffset: 0; stroke-linejoin: miter; stroke-miterlimit: 4; is-custom-font: none; font-file-url: none; fill: rgb(0,0,0); fill-rule: nonzero; opacity: 1;" transform=" translate(-1320, -662.0886)" d="M 1310 666 c 0 -14 5 -28 10 -31 c 6 -4 10 7 10 24 c 0 17 -4 31 -10 31 c -5 0 -10 -11 -10 -24 z" stroke-linecap="round"/>
</g>
		<g transform="matrix(0.1333 0 0 -0.1333 69.32 80.6615)">
<path style="stroke: none; stroke-width: 1; stroke-dasharray: none; stroke-linecap: butt; stroke-dashoffset: 0; stroke-linejoin: miter; stroke-miterlimit: 4; is-custom-font: none; font-file-url: none; fill: rgb(0,0,0); fill-rule: nonzero; opacity: 1;" transform=" translate(-1640, -515)" d="M 1763 609 l -62 -61 l -36 36 c -20 20 -46 36 -58 36 c -15 0 -60 -38 -142 -120 l -120 -120 l -52 0 c -29 0 -53 -4 -53 -10 c 0 -6 140 -10 400 -10 c 260 0 400 4 400 10 c 0 6 -83 10 -230 10 c -126 0 -230 3 -230 8 c 0 4 58 65 129 136 l 129 129 l 29 -21 c 15 -11 46 -39 67 -61 c 22 -22 43 -38 48 -35 c 4 3 6 -1 3 -8 c -5 -14 43 -54 53 -44 c 10 11 -171 186 -193 186 c -11 0 -47 -27 -82 -61 z m -133 -20 c 0 -5 6 -7 13 -3 c 6 4 9 4 5 -1 c -9 -9 11 -37 21 -30 c 4 2 8 -3 8 -11 c 0 -9 -22 -38 -49 -66 c -26 -27 -45 -54 -42 -60 c 5 -7 2 -8 -5 -3 c -8 4 -18 -1 -27 -14 c -13 -18 -25 -21 -84 -21 c -66 0 -97 11 -65 24 c 8 3 15 13 15 21 c 0 9 3 14 8 12 c 10 -7 62 49 54 58 c -4 4 0 5 8 3 c 8 -2 14 3 12 10 c -1 8 1 11 5 9 c 11 -7 63 49 55 58 c -4 5 -1 5 6 1 c 7 -4 15 -1 18 8 c 7 18 44 22 44 5 z" stroke-linecap="round"/>
</g>
		<g transform="matrix(0.1333 0 0 -0.1333 4.6652 99.9996)">
<path style="stroke: none; stroke-width: 1; stroke-dasharray: none; stroke-linecap: butt; stroke-dashoffset: 0; stroke-linejoin: miter; stroke-miterlimit: 4; is-custom-font: none; font-file-url: none; fill: rgb(0,0,0); fill-rule: nonzero; opacity: 1;" transform=" translate(-1155, -370)" d="M 1110 370 c 0 -5 20 -10 45 -10 c 25 0 45 5 45 10 c 0 6 -20 10 -45 10 c -25 0 -45 -4 -45 -10 z" stroke-linecap="round"/>
</g>
</g>
</g>
</svg>